<?xml version="1.0" standalone="no"?>
<!DOCTYPE svg PUBLIC "-//W3C//DTD SVG 20010904//EN"
 "http://www.w3.org/TR/2001/REC-SVG-20010904/DTD/svg10.dtd">
<svg version="1.0" xmlns="http://www.w3.org/2000/svg"
 width="2194.000000pt" height="2194.000000pt" viewBox="0 0 2194.000000 2194.000000"
 preserveAspectRatio="xMidYMid meet">
<metadata>
Created by potrace 1.11, written by Peter Selinger 2001-2013
</metadata>
<g transform="translate(0.000000,2194.000000) scale(0.100000,-0.100000)"
fill="#000000" stroke="none">
<path d="M12800 21930 c-322 -23 -804 -78 -1085 -125 -82 -14 -364 -68 -625
-120 -1874 -372 -2456 -449 -3415 -449 -454 0 -625 9 -995 50 -361 40 -714
101 -1078 185 -96 23 -176 38 -179 36 -6 -7 130 -252 230 -417 305 -499 729
-1035 1067 -1348 312 -289 651 -528 1013 -717 l138 -72 -151 -107 c-290 -207
-634 -480 -915 -726 -460 -403 -1118 -1066 -1516 -1527 -819 -950 -1425 -1984
-1922 -3278 -301 -786 -471 -1519 -561 -2430 -50 -495 -50 -1024 0 -1460 76
-676 290 -1396 601 -2020 82 -164 196 -366 203 -358 4 4 19 71 35 148 132 661
368 1361 672 1995 380 794 1017 1703 1842 2630 398 447 1142 1210 1541 1581
1473 1367 2911 2364 4355 3019 581 264 1282 497 1840 614 143 30 653 109 850
132 189 21 442 22 570 0 299 -52 583 -205 826 -446 182 -180 310 -364 435
-625 284 -590 286 -1259 5 -1884 -28 -63 -49 -116 -47 -119 11 -10 1324 925
1566 1116 241 191 517 460 692 678 206 255 283 402 349 664 18 72 22 123 26
325 4 212 3 255 -16 363 -37 216 -111 396 -238 576 -81 114 -419 449 -571 566
-140 108 -262 192 -373 256 l-75 44 -53 137 c-106 275 -272 590 -431 818 -167
240 -322 416 -675 770 -359 361 -566 535 -861 731 -628 414 -1364 676 -2199
780 -152 19 -680 27 -875 14z"/>
<path d="M11045 14908 c-977 -750 -1640 -1328 -2370 -2070 -512 -519 -818
-874 -1249 -1448 -622 -830 -1029 -1650 -1361 -2747 -289 -951 -383 -1671
-324 -2478 75 -1036 543 -2120 1300 -3015 288 -342 776 -797 1199 -1121 249
-190 608 -442 855 -599 225 -144 510 -311 513 -302 1 5 -54 166 -124 358 -176
485 -427 1205 -519 1485 -177 543 -285 1047 -379 1769 -85 649 -113 1108 -123
1990 -9 854 13 1152 168 2220 98 677 197 1242 310 1765 105 491 229 899 411
1355 369 925 561 1322 853 1765 235 357 452 627 777 968 88 92 156 167 151
166 -4 0 -44 -28 -88 -61z"/>
<path d="M11623 14003 c-300 -336 -521 -665 -713 -1058 -77 -158 -276 -610
-350 -795 -255 -639 -447 -1378 -534 -2062 -134 -1043 -94 -2056 125 -3153
176 -883 375 -1482 708 -2130 581 -1128 1374 -2086 2426 -2926 701 -560 1290
-941 1872 -1213 895 -418 1823 -643 2733 -662 l265 -6 -55 53 c-30 29 -178
170 -328 313 -1019 972 -1925 2066 -2811 3396 -642 963 -1075 1725 -1743 3066
-495 992 -741 1545 -961 2159 -544 1516 -745 3292 -563 4978 7 64 9 117 5 117
-4 0 -38 -35 -76 -77z"/>
</g>
</svg>
